<mxfile host="app.diagrams.net" modified="2024-04-22T11:29:44.319Z" agent="Mozilla/5.0 (Windows NT 10.0; Win64; x64; rv:125.0) Gecko/20100101 Firefox/125.0" etag="FWIFJ_Gs1xh2AlB6Ju8L" version="24.2.7" type="device">
  <diagram name="ページ1" id="6O8cq4Rfigk1k-ii5kAo">
    <mxGraphModel dx="2213" dy="1883" grid="1" gridSize="10" guides="1" tooltips="1" connect="1" arrows="1" fold="1" page="1" pageScale="1" pageWidth="827" pageHeight="1169" math="0" shadow="0">
      <root>
        <mxCell id="0" />
        <object label="ネットワーク" id="1">
          <mxCell style="locked=1;" parent="0" />
        </object>
        <mxCell id="ExSx5SIZApUU_Iw7rpWn-4" value="" style="endArrow=oval;html=1;rounded=0;startArrow=oval;startFill=1;endFill=1;strokeWidth=4;fillColor=#a20025;strokeColor=#6F0000;" parent="1" edge="1">
          <mxGeometry width="50" height="50" relative="1" as="geometry">
            <mxPoint x="-240" y="477" as="sourcePoint" />
            <mxPoint x="800" y="477" as="targetPoint" />
          </mxGeometry>
        </mxCell>
        <mxCell id="ExSx5SIZApUU_Iw7rpWn-5" value="" style="endArrow=oval;html=1;rounded=0;startArrow=oval;startFill=1;endFill=1;strokeWidth=4;fillColor=#008a00;strokeColor=#005700;" parent="1" edge="1">
          <mxGeometry width="50" height="50" relative="1" as="geometry">
            <mxPoint x="-240" y="40" as="sourcePoint" />
            <mxPoint x="800" y="40" as="targetPoint" />
          </mxGeometry>
        </mxCell>
        <mxCell id="ExSx5SIZApUU_Iw7rpWn-10" value="172.16.0.0/12" style="text;html=1;align=center;verticalAlign=middle;resizable=0;points=[];autosize=1;strokeColor=none;fillColor=none;" parent="1" vertex="1">
          <mxGeometry x="-355" y="24" width="100" height="30" as="geometry" />
        </mxCell>
        <mxCell id="ExSx5SIZApUU_Iw7rpWn-11" value="10.0.0.0/24" style="text;html=1;align=center;verticalAlign=middle;resizable=0;points=[];autosize=1;strokeColor=none;fillColor=none;" parent="1" vertex="1">
          <mxGeometry x="-345" y="462" width="80" height="30" as="geometry" />
        </mxCell>
        <mxCell id="ExSx5SIZApUU_Iw7rpWn-20" value="" style="endArrow=none;html=1;rounded=0;startArrow=none;startFill=0;endFill=0;strokeWidth=4;fillColor=#008a00;strokeColor=#005700;exitX=0.5;exitY=1;exitDx=0;exitDy=0;" parent="1" edge="1">
          <mxGeometry width="50" height="50" relative="1" as="geometry">
            <mxPoint x="-40" y="40" as="sourcePoint" />
            <mxPoint x="-40" y="120" as="targetPoint" />
          </mxGeometry>
        </mxCell>
        <mxCell id="ExSx5SIZApUU_Iw7rpWn-25" value="" style="endArrow=none;html=1;rounded=0;startArrow=none;startFill=0;endFill=0;strokeWidth=4;fillColor=#a20025;strokeColor=#6F0000;exitX=0.5;exitY=1;exitDx=0;exitDy=0;" parent="1" edge="1">
          <mxGeometry width="50" height="50" relative="1" as="geometry">
            <mxPoint x="-40" y="397" as="sourcePoint" />
            <mxPoint x="-40" y="477" as="targetPoint" />
          </mxGeometry>
        </mxCell>
        <mxCell id="dhZxdiCtLspTuoXGJ-0p-8" value="" style="endArrow=oval;html=1;rounded=0;startArrow=oval;startFill=1;endFill=1;strokeWidth=4;fillColor=#008a00;strokeColor=#02BF02;" parent="1" edge="1">
          <mxGeometry width="50" height="50" relative="1" as="geometry">
            <mxPoint x="-240" y="-31.29" as="sourcePoint" />
            <mxPoint x="800" y="-31.29" as="targetPoint" />
          </mxGeometry>
        </mxCell>
        <mxCell id="dhZxdiCtLspTuoXGJ-0p-9" value="172.16.101.0/24" style="text;html=1;align=center;verticalAlign=middle;resizable=0;points=[];autosize=1;strokeColor=none;fillColor=none;" parent="1" vertex="1">
          <mxGeometry x="-360" y="-46" width="110" height="30" as="geometry" />
        </mxCell>
        <mxCell id="dhZxdiCtLspTuoXGJ-0p-11" value="VXLAN 228" style="text;html=1;align=center;verticalAlign=middle;resizable=0;points=[];autosize=1;strokeColor=none;fillColor=none;" parent="1" vertex="1">
          <mxGeometry x="-180" y="-63" width="80" height="30" as="geometry" />
        </mxCell>
        <object label="マシン" id="ExSx5SIZApUU_Iw7rpWn-6">
          <mxCell style="locked=1;" parent="0" />
        </object>
        <mxCell id="ExSx5SIZApUU_Iw7rpWn-7" value="" style="rounded=1;whiteSpace=wrap;html=1;fillColor=#dae8fc;strokeColor=#6c8ebf;align=center;horizontal=1;" parent="ExSx5SIZApUU_Iw7rpWn-6" vertex="1">
          <mxGeometry x="-160" y="120" width="910" height="270" as="geometry" />
        </mxCell>
        <mxCell id="ExSx5SIZApUU_Iw7rpWn-26" value="eth1" style="rounded=0;whiteSpace=wrap;html=1;fillColor=#e3c800;fontColor=#000000;strokeColor=#B09500;" parent="ExSx5SIZApUU_Iw7rpWn-6" vertex="1">
          <mxGeometry x="-80" y="380" width="80" height="20" as="geometry" />
        </mxCell>
        <mxCell id="ExSx5SIZApUU_Iw7rpWn-32" value="vxlan-288" style="rounded=0;whiteSpace=wrap;html=1;fillColor=#e3c800;fontColor=#000000;strokeColor=#B09500;" parent="ExSx5SIZApUU_Iw7rpWn-6" vertex="1">
          <mxGeometry x="-80" y="240" width="80" height="20" as="geometry" />
        </mxCell>
        <mxCell id="ExSx5SIZApUU_Iw7rpWn-33" value="10.0.0.11" style="text;html=1;align=center;verticalAlign=middle;resizable=0;points=[];autosize=1;strokeColor=none;fillColor=none;" parent="ExSx5SIZApUU_Iw7rpWn-6" vertex="1">
          <mxGeometry x="-40" y="400" width="70" height="30" as="geometry" />
        </mxCell>
        <mxCell id="21zLahzKs5m0MUraH8DA-1" value="&lt;font style=&quot;font-size: 17px;&quot;&gt;Controller Node&lt;/font&gt;" style="text;html=1;align=center;verticalAlign=middle;resizable=0;points=[];autosize=1;strokeColor=none;fillColor=none;" parent="ExSx5SIZApUU_Iw7rpWn-6" vertex="1">
          <mxGeometry x="570" y="130" width="140" height="30" as="geometry" />
        </mxCell>
        <mxCell id="21zLahzKs5m0MUraH8DA-2" value="brq9f175a6d-d0" style="rounded=0;whiteSpace=wrap;html=1;fillColor=#B39D00;fontColor=#000000;strokeColor=#B09500;" parent="ExSx5SIZApUU_Iw7rpWn-6" vertex="1">
          <mxGeometry x="-115" y="290" width="150" height="40" as="geometry" />
        </mxCell>
        <mxCell id="21zLahzKs5m0MUraH8DA-3" value="" style="endArrow=none;html=1;rounded=0;startArrow=none;startFill=0;endFill=0;strokeWidth=4;fillColor=#008a00;strokeColor=#02BF02;entryX=0.5;entryY=0;entryDx=0;entryDy=0;" parent="ExSx5SIZApUU_Iw7rpWn-6" target="21zLahzKs5m0MUraH8DA-2" edge="1">
          <mxGeometry width="50" height="50" relative="1" as="geometry">
            <mxPoint x="-40" y="260" as="sourcePoint" />
            <mxPoint x="-40" y="210" as="targetPoint" />
          </mxGeometry>
        </mxCell>
        <mxCell id="21zLahzKs5m0MUraH8DA-6" value="tapd572d166-9f" style="rounded=0;whiteSpace=wrap;html=1;fillColor=#e3c800;fontColor=#000000;strokeColor=#B09500;" parent="ExSx5SIZApUU_Iw7rpWn-6" vertex="1">
          <mxGeometry x="70" y="300" width="110" height="20" as="geometry" />
        </mxCell>
        <mxCell id="21zLahzKs5m0MUraH8DA-8" value="" style="endArrow=none;html=1;rounded=0;startArrow=none;startFill=0;endFill=0;strokeWidth=4;fillColor=#008a00;strokeColor=#02BF02;exitX=1;exitY=0.5;exitDx=0;exitDy=0;entryX=0;entryY=0.5;entryDx=0;entryDy=0;" parent="ExSx5SIZApUU_Iw7rpWn-6" source="21zLahzKs5m0MUraH8DA-2" target="21zLahzKs5m0MUraH8DA-6" edge="1">
          <mxGeometry width="50" height="50" relative="1" as="geometry">
            <mxPoint x="-30" y="140" as="sourcePoint" />
            <mxPoint x="-30" y="245" as="targetPoint" />
          </mxGeometry>
        </mxCell>
        <mxCell id="21zLahzKs5m0MUraH8DA-13" value="" style="endArrow=none;html=1;rounded=0;startArrow=none;startFill=0;endFill=0;strokeWidth=4;fillColor=#008a00;strokeColor=#02BF02;exitX=1;exitY=0.5;exitDx=0;exitDy=0;entryX=0;entryY=0.5;entryDx=0;entryDy=0;" parent="ExSx5SIZApUU_Iw7rpWn-6" source="21zLahzKs5m0MUraH8DA-6" target="21zLahzKs5m0MUraH8DA-12" edge="1">
          <mxGeometry width="50" height="50" relative="1" as="geometry">
            <mxPoint x="45" y="265" as="sourcePoint" />
            <mxPoint x="80" y="265" as="targetPoint" />
            <Array as="points" />
          </mxGeometry>
        </mxCell>
        <mxCell id="Ey_H4BJSh4eEAzskgTPG-4" value="eth0" style="rounded=0;whiteSpace=wrap;html=1;fillColor=#e3c800;fontColor=#000000;strokeColor=#B09500;" parent="ExSx5SIZApUU_Iw7rpWn-6" vertex="1">
          <mxGeometry x="-80" y="110" width="80" height="20" as="geometry" />
        </mxCell>
        <mxCell id="dhZxdiCtLspTuoXGJ-0p-2" value="brqca4e2bc3-fe" style="rounded=0;whiteSpace=wrap;html=1;fillColor=#B39D00;fontColor=#000000;strokeColor=#B09500;" parent="ExSx5SIZApUU_Iw7rpWn-6" vertex="1">
          <mxGeometry x="-115" y="170" width="150" height="40" as="geometry" />
        </mxCell>
        <mxCell id="dhZxdiCtLspTuoXGJ-0p-4" value="" style="endArrow=none;html=1;rounded=0;startArrow=none;startFill=0;endFill=0;strokeWidth=4;fillColor=#008a00;strokeColor=#005700;" parent="ExSx5SIZApUU_Iw7rpWn-6" edge="1">
          <mxGeometry width="50" height="50" relative="1" as="geometry">
            <mxPoint x="-40.480000000000004" y="130" as="sourcePoint" />
            <mxPoint x="-40" y="170" as="targetPoint" />
          </mxGeometry>
        </mxCell>
        <mxCell id="dhZxdiCtLspTuoXGJ-0p-7" value="" style="endArrow=none;html=1;rounded=0;startArrow=none;startFill=0;endFill=0;strokeWidth=4;fillColor=#008a00;strokeColor=#005700;entryX=0.5;entryY=0;entryDx=0;entryDy=0;exitX=0.5;exitY=1;exitDx=0;exitDy=0;dashed=1;dashPattern=1 1;" parent="ExSx5SIZApUU_Iw7rpWn-6" source="dhZxdiCtLspTuoXGJ-0p-2" target="ExSx5SIZApUU_Iw7rpWn-32" edge="1">
          <mxGeometry width="50" height="50" relative="1" as="geometry">
            <mxPoint x="-30" y="270" as="sourcePoint" />
            <mxPoint x="-30" y="300" as="targetPoint" />
          </mxGeometry>
        </mxCell>
        <mxCell id="dhZxdiCtLspTuoXGJ-0p-10" value="" style="endArrow=none;html=1;rounded=0;startArrow=none;startFill=0;endFill=0;strokeWidth=4;fillColor=#008a00;strokeColor=#02BF02;exitX=1;exitY=0.5;exitDx=0;exitDy=0;jumpStyle=arc;" parent="ExSx5SIZApUU_Iw7rpWn-6" source="ExSx5SIZApUU_Iw7rpWn-32" edge="1">
          <mxGeometry width="50" height="50" relative="1" as="geometry">
            <mxPoint x="-30" y="270" as="sourcePoint" />
            <mxPoint x="130" y="-30" as="targetPoint" />
            <Array as="points">
              <mxPoint x="130" y="250" />
            </Array>
          </mxGeometry>
        </mxCell>
        <mxCell id="dhZxdiCtLspTuoXGJ-0p-12" value="172.16.0.11" style="text;html=1;align=center;verticalAlign=middle;resizable=0;points=[];autosize=1;strokeColor=none;fillColor=none;" parent="ExSx5SIZApUU_Iw7rpWn-6" vertex="1">
          <mxGeometry x="-40" y="140" width="90" height="30" as="geometry" />
        </mxCell>
        <object label="DHCP名前空間" id="21zLahzKs5m0MUraH8DA-9">
          <mxCell style="locked=1;" parent="0" />
        </object>
        <mxCell id="21zLahzKs5m0MUraH8DA-10" value="" style="rounded=1;whiteSpace=wrap;html=1;fillColor=#b8d2fa;strokeColor=#6c8ebf;align=center;horizontal=1;" parent="21zLahzKs5m0MUraH8DA-9" vertex="1">
          <mxGeometry x="280" y="160" width="450" height="210" as="geometry" />
        </mxCell>
        <mxCell id="21zLahzKs5m0MUraH8DA-11" value="&lt;font style=&quot;font-size: 17px;&quot;&gt;qdhcp-9f175a6d-d01e-4635-bdf3-244849aefab2&lt;/font&gt;" style="text;html=1;align=center;verticalAlign=middle;resizable=0;points=[];autosize=1;strokeColor=none;fillColor=none;" parent="21zLahzKs5m0MUraH8DA-9" vertex="1">
          <mxGeometry x="340" y="170" width="390" height="30" as="geometry" />
        </mxCell>
        <mxCell id="21zLahzKs5m0MUraH8DA-12" value="ns-d572d166-9f" style="rounded=0;whiteSpace=wrap;html=1;fillColor=#e3c800;fontColor=#000000;strokeColor=#B09500;" parent="21zLahzKs5m0MUraH8DA-9" vertex="1">
          <mxGeometry x="230" y="300" width="110" height="20" as="geometry" />
        </mxCell>
        <mxCell id="21zLahzKs5m0MUraH8DA-14" value="192.168.101.2" style="text;html=1;align=center;verticalAlign=middle;resizable=0;points=[];autosize=1;strokeColor=none;fillColor=none;" parent="21zLahzKs5m0MUraH8DA-9" vertex="1">
          <mxGeometry x="270" y="270" width="100" height="30" as="geometry" />
        </mxCell>
        <mxCell id="21zLahzKs5m0MUraH8DA-15" value="&lt;font style=&quot;font-size: 17px;&quot;&gt;DHCP agent&lt;/font&gt;" style="rounded=1;whiteSpace=wrap;html=1;fillColor=#3f86f1;strokeColor=#6c8ebf;align=center;horizontal=1;" parent="21zLahzKs5m0MUraH8DA-9" vertex="1">
          <mxGeometry x="400" y="230" width="270" height="90" as="geometry" />
        </mxCell>
      </root>
    </mxGraphModel>
  </diagram>
</mxfile>
